# xmcd CD database file
# Generated: Mon Jul 24 08:33:20 2000 by KSCD
# 
# Track frame offsets:
#       150
#       35617
#       52305
#       97022
#       113807
#       134622
#       153152
#       175955
#       192107
#       209770
#       234545
#       262120
#       282937
#
# Disc length: 4216 seconds
#
# Revision: 2
# Processed by: cddbd v1.4b41PL1 Copyright (c) Steve Scherf et al.
# Submitted via: Kscd 1.2.7
#
DISCID=ca10760d
DTITLE=The Manfreds - Live CD 2
DYEAR=1900
DGENRE=
TTITLE0=5-4-3-2-1 and Bo Diddley
TTITLE1=Ragamuffin Man
TTITLE2=Watermelon Man
TTITLE3=When I'm Dead and Gone
TTITLE4=Oh No! Not My Baby
TTITLE5=Ha! Ha! Said The Clown
TTITLE6=Come Tomorrow
TTITLE7=Build Me Up Buttercup
TTITLE8=Do Wah Diddy Diddy 
TTITLE9=Smokestack Lightning
TTITLE10=Mighty Quin
TTITLE11=Handbags and Gladrags
TTITLE12=If You Gotta Go, Go Now
EXTD=
EXTT0=
EXTT1=
EXTT2=
EXTT3=
EXTT4=
EXTT5=
EXTT6=
EXTT7=
EXTT8=
EXTT9=
EXTT10=
EXTT11=
EXTT12=
PLAYORDER=
